# Blender v2.80 (sub 75) OBJ File: 'fake-sky-cavern.blend'
# www.blender.org
mtllib fake-sky-cavern.mtl
o Plane
v -9.290071 0.000000 4.774930
v 1.153411 0.000000 5.903715
v -9.747595 0.000000 -2.571499
v 2.000000 0.000000 -2.000000
v 10.546038 0.000000 9.538555
v 13.395830 0.000000 2.172591
v 17.900003 0.000000 20.775707
v 25.154518 0.000000 13.258524
v -32.791374 0.000000 3.555841
v -30.725702 0.000000 -10.172404
v -13.590742 0.000000 -14.439216
v -21.921175 0.000000 -16.538754
v -13.577156 0.000000 13.098129
v -24.052696 -0.000000 14.115632
v 32.937653 0.000000 40.983566
v 46.096748 0.000000 32.169930
v 13.789387 0.000000 27.751202
v 18.459312 -0.000000 38.776909
v 32.216057 0.000000 9.797681
v 50.098423 0.000000 25.631338
v -9.290071 12.925925 4.774930
v 0.879995 16.198477 10.665043
v -9.747595 12.925925 -2.571499
v 2.273417 16.198477 -2.343880
v 10.797974 13.470958 8.887368
v 13.143895 13.470958 2.823778
v 14.216751 12.006958 19.207836
v 23.766077 12.333559 9.312752
v -32.791374 12.925925 3.555842
v -30.725700 12.925925 -10.172405
v -13.590741 12.925925 -14.439214
v -21.921175 12.925925 -16.538754
v -13.577156 12.925925 13.098129
v -24.052696 12.925925 14.115632
v 34.011242 11.893516 45.808018
v 51.332932 11.557040 34.206379
v 8.805828 9.855195 28.389883
v 14.952986 13.610402 42.903336
v 33.061386 13.898815 4.757145
v 56.600456 8.514672 25.599443
v 36.694363 -0.585667 22.177851
v 24.909882 -0.585667 31.605394
v 14.178751 -0.585667 34.358372
v 44.606655 -0.585667 13.818436
v 9.318359 13.315313 37.087093
v 49.371483 12.707949 10.049780
v -9.290071 0.000000 4.774930
v -9.290071 0.000000 4.774930
v 1.153411 0.000000 5.903715
v 2.000000 0.000000 -2.000000
v -9.747595 0.000000 -2.571499
v -9.747595 0.000000 -2.571499
v 10.546038 0.000000 9.538555
v 13.395830 0.000000 2.172591
v 17.900003 0.000000 20.775707
v 25.154518 0.000000 13.258524
v 25.154518 0.000000 13.258524
v -30.725702 0.000000 -10.172404
v -32.791374 0.000000 3.555841
v -13.590742 0.000000 -14.439216
v -21.921175 0.000000 -16.538754
v -24.052696 -0.000000 14.115632
v -13.577156 0.000000 13.098129
v 32.937653 0.000000 40.983566
v 14.178751 -0.585667 34.358372
v 18.459312 -0.000000 38.776909
v 13.789387 0.000000 27.751202
v 44.606655 -0.585667 13.818436
v 32.216057 0.000000 9.797681
v -9.290071 12.925925 4.774930
v -9.290071 12.925925 4.774930
v 0.879995 16.198477 10.665043
v 2.273417 16.198477 -2.343880
v -9.747595 12.925925 -2.571499
v -9.747595 12.925925 -2.571499
v 10.797974 13.470958 8.887368
v 13.143895 13.470958 2.823778
v 14.216751 12.006958 19.207836
v 23.766077 12.333559 9.312752
v 23.766077 12.333559 9.312752
vt 0.997349 4.994589
vt 0.997348 5.359466
vt 0.379555 5.359466
vt 0.292654 4.994589
vt 1.840359 3.080412
vt 1.840359 3.742357
vt 1.052861 3.742357
vt 1.052861 3.080413
vt 2.860779 2.503257
vt 2.860779 3.321441
vt 2.040075 3.321441
vt 2.358005 2.503257
vt 0.997350 3.474145
vt 0.997349 4.629712
vt 0.205753 4.629712
vt 0.285217 3.474145
vt 2.860779 3.935032
vt 2.860779 4.574995
vt 2.073281 4.574995
vt 1.873904 3.935032
vt 1.840359 0.608636
vt 1.840359 1.286301
vt 1.052861 1.286301
vt 1.052861 0.608636
vt 2.882745 1.370664
vt 2.882745 2.355230
vt 2.364855 2.355230
vt 2.062041 1.370664
vt 0.997347 5.956076
vt 0.494573 5.956076
vt 1.840359 2.234619
vt 1.052861 2.234619
vt 0.997349 1.187671
vt 0.997349 1.773580
vt 0.441601 1.773580
vt 0.317003 1.187671
vt 2.882745 -0.008655
vt 2.882745 0.631308
vt 1.895870 0.631309
vt 2.095247 -0.008655
vt 1.840359 -0.008655
vt 1.052861 -0.008655
vt 0.997350 -0.008654
vt 0.997349 0.601762
vt 0.192405 0.601762
vt 0.479460 -0.008655
vt 0.997350 2.509232
vt 0.300790 2.509232
vt 1.840359 4.265750
vt 1.052861 4.265750
vt 1.840359 5.022827
vt 1.052861 5.022827
vt 0.675954 3.622410
vt 1.306380 1.909903
vt 2.601827 2.388211
vt 1.971401 4.100719
vt 1.465662 0.167510
vt 2.832037 0.292540
vt 0.284393 -1.844396
vt 2.014293 -2.393226
vt 1.347735 8.112307
vt -0.948315 7.374153
vt 3.334405 5.774837
vt 3.018165 7.233407
vt -2.203161 4.978802
vt -1.071677 3.412347
vt 1.350886 -4.752766
vt -0.707781 -3.794490
vt -1.699954 -5.744584
vt 0.687479 -7.112306
vt -1.338081 -1.332747
vt -2.129357 -2.008333
vt 2.764763 -6.820229
vt 3.049584 -5.173963
vt 3.334406 -3.527696
vt -2.920634 -2.683919
vt 0.828566 0.812772
vt 0.837066 0.804642
vt 0.816394 0.782281
vt 0.809805 0.783437
vt 0.798080 0.755282
vt 0.788230 0.757350
vt 0.789356 0.696807
vt 0.756844 0.755571
vn 0.8215 0.3979 -0.4083
vn 0.8953 0.3842 0.2255
vn 0.9073 0.3902 0.1567
vn 0.7934 0.3941 -0.4639
vn 0.8541 0.0000 0.5202
vn 0.1884 0.0000 0.9821
vn 0.9642 0.2516 0.0837
vn 0.5770 0.1238 -0.8072
vn 0.5148 0.1278 -0.8477
vn 0.9751 0.2181 -0.0399
vn -0.1900 0.3761 -0.9069
vn 0.4175 0.3666 -0.8314
vn 0.4421 0.3677 -0.8181
vn -0.1779 0.3756 -0.9095
vn 0.2088 0.1476 -0.9667
vn 0.2959 0.1568 -0.9422
vn 0.2032 0.1469 -0.9680
vn -0.5613 0.0000 -0.8276
vn 0.3814 0.0000 -0.9244
vn -0.5052 0.0261 0.8626
vn -0.6145 0.0613 0.7865
vn -0.4953 0.0230 0.8684
vn 0.9635 0.0000 -0.2676
vn -0.5466 0.4352 0.7154
vn -0.5887 0.8063 -0.0569
vn -0.8431 0.5347 -0.0568
vn -0.5424 0.4341 0.7192
vn -0.0352 0.0121 0.9993
vn -0.2137 0.0015 0.9769
vn -0.2195 0.0012 0.9756
vn -0.8890 0.0000 -0.4579
vn 0.3954 0.3050 0.8664
vn 0.0777 0.3449 0.9354
vn 0.0362 0.3474 0.9370
vn -0.4072 0.7960 -0.4478
vn -0.6225 0.4232 -0.6583
vn -0.6833 0.0000 0.7301
vn -0.9514 0.0000 0.3081
vn 0.0000 1.0000 0.0000
vn 0.0211 0.9994 0.0273
vn 0.0185 0.9996 0.0219
vn -0.0026 1.0000 -0.0004
vn 0.0064 0.9998 -0.0177
vn -0.0193 0.9985 -0.0503
vn 0.0344 0.9980 0.0524
vn 0.0187 0.9998 -0.0063
vn -0.0045 1.0000 0.0030
vn 0.0290 0.9989 0.0367
vn -0.0018 0.9965 -0.0830
vn 0.2796 -0.9600 0.0128
vn 0.0417 -0.9990 -0.0155
vn 0.0032 -0.9998 -0.0200
vn -0.1725 -0.9829 -0.0645
vn -0.1596 -0.9849 -0.0673
vn -0.0844 -0.9930 -0.0832
usemtl Walls
s 1
f 65/1/1 17/2/2 37/3/3 45/4/4
f 10/5/5 12/6/6 32/7/6 30/8/5
f 7/9/7 5/10/8 76/11/9 78/12/10
f 15/13/11 66/14/12 38/15/13 35/16/14
f 2/17/15 48/18/16 70/19/16 72/20/17
f 13/21/18 14/22/19 34/23/19 33/24/18
f 6/25/20 8/26/21 79/27/21 77/28/22
f 17/2/2 7/29/7 78/30/10 37/3/3
f 14/22/19 9/31/23 29/32/23 34/23/19
f 9/31/23 10/5/5 30/8/5 29/32/23
f 68/33/24 20/34/25 40/35/26 46/36/27
f 52/37/28 4/38/29 73/39/30 74/40/28
f 1/41/31 13/21/18 33/24/18 71/42/31
f 57/43/32 69/44/33 39/45/34 80/46/32
f 16/47/35 15/13/11 35/16/14 36/48/36
f 20/34/25 16/47/35 36/48/36 40/35/26
f 5/10/8 2/17/15 72/20/17 76/11/9
f 12/6/6 11/49/37 31/50/37 32/7/6
f 4/38/29 6/25/20 77/28/22 73/39/30
f 11/49/37 3/51/38 75/52/38 31/50/37
f 69/44/33 68/33/24 46/36/27 39/45/34
f 66/14/12 65/1/1 45/4/4 38/15/13
usemtl Floor
f 47/53/39 49/54/39 50/55/39 51/56/39
f 50/55/39 49/54/39 53/57/39 54/58/39
f 54/58/39 53/57/39 55/59/40 56/60/41
f 47/53/39 51/56/39 58/61/39 59/62/39
f 58/61/39 51/56/39 60/63/39 61/64/39
f 47/53/39 59/62/39 62/65/39 63/66/39
f 41/67/42 42/68/43 64/69/44 16/70/35
f 42/68/43 55/59/40 67/71/45 43/72/46
f 41/67/42 16/70/35 20/73/25 44/74/47
f 56/60/41 41/67/42 44/74/47 19/75/48
f 64/69/44 42/68/43 43/72/46 18/76/49
f 56/60/41 55/59/40 42/68/43 41/67/42
usemtl Skybox
f 21/77/50 23/78/50 24/79/51 22/80/52
f 22/80/52 24/79/51 26/81/53 25/82/54
f 25/82/54 26/81/53 28/83/55 27/84/55
